<svg width="114" height="51" viewBox="0 0 114 51" fill="none" xmlns="http://www.w3.org/2000/svg">
<path d="M24.41 31.216C23.794 31.172 21.902 31.15 18.734 31.15C15.566 31.15 13.718 31.238 13.19 31.414C10.858 39.07 9.538 44.592 9.23 47.98C9.23 48.024 8.68 48.046 7.58 48.046C6.524 48.046 5.424 47.98 4.28 47.848C1.86 47.496 0.65 47.188 0.65 46.924C0.65 45.164 2.212 40.038 5.336 31.546C4.764 31.062 4.104 30.072 3.356 28.576C2.608 27.036 2.234 25.76 2.234 24.748C2.234 24.704 4.06 24.616 7.712 24.484C11.32 14.012 13.366 8.49 13.85 7.918C14.026 7.786 14.818 7.588 16.226 7.324C17.634 7.016 18.536 6.862 18.932 6.862L18.8 6.004C18.712 5.388 18.602 4.728 18.47 4.024C18.382 3.276 18.338 2.792 18.338 2.572C18.338 2.44 18.712 2.176 19.46 1.78C21.616 0.723999 23.838 0.196 26.126 0.196C26.566 2.792 27.138 6.114 27.842 10.162C28.59 14.166 30.02 20.304 32.132 28.576C34.244 36.848 36.268 42.612 38.204 45.868L38.666 46.66C38.666 46.88 38.248 47.254 37.412 47.782C36.576 48.31 35.476 48.816 34.112 49.3C32.748 49.784 31.494 50.026 30.35 50.026C29.954 50.026 28.986 47.54 27.446 42.568C25.95 37.552 24.938 33.768 24.41 31.216ZM22.826 24.418C21.33 18.082 20.516 14.54 20.384 13.792C20.252 13.044 20.142 12.67 20.054 12.67C19.966 12.67 19.856 12.758 19.724 12.934C19.328 13.682 18.58 15.486 17.48 18.346C16.424 21.206 15.742 23.186 15.434 24.286C20.318 24.286 22.782 24.33 22.826 24.418ZM55.7471 30.622C48.9711 41.49 45.4291 47.122 45.1211 47.518C44.8131 47.958 44.5491 48.178 44.3291 48.178C42.5691 48.178 40.9631 47.936 39.5111 47.452C38.0591 46.968 37.0471 46.506 36.4751 46.066C35.9031 45.626 35.6171 45.34 35.6171 45.208C35.6171 45.032 35.7931 44.79 36.1451 44.482C39.4891 41.094 44.6371 33.988 51.5891 23.164C46.5731 14.144 43.5811 9.216 42.6131 8.38C42.2611 8.072 41.6451 7.742 40.7651 7.39C39.8851 7.038 39.0931 6.862 38.3891 6.862C38.3451 6.774 38.3231 6.532 38.3231 6.136C38.3231 5.696 38.4551 5.058 38.7191 4.222C39.0271 3.342 39.2471 2.836 39.3791 2.704C39.5111 2.572 39.9291 2.44 40.6331 2.308C42.5251 1.956 44.4391 1.78 46.3751 1.78C48.3551 1.78 49.3891 1.824 49.4771 1.912C49.6091 2 49.9391 2.572 50.4671 3.628C52.9311 8.424 54.9551 12.34 56.5391 15.376C62.4351 6.092 65.6691 1.45 66.2411 1.45C67.4731 1.45 68.7491 1.714 70.0691 2.242C71.3891 2.77 72.4231 3.342 73.1711 3.958C73.9191 4.53 74.2931 4.948 74.2931 5.212C71.2131 7.808 66.6591 13.704 60.6311 22.9C67.6271 35.352 72.8411 42.832 76.2731 45.34C76.2731 45.912 75.2171 46.748 73.1051 47.848C71.0371 48.992 69.2111 49.564 67.6271 49.564H67.3631C65.7351 47.98 61.8631 41.666 55.7471 30.622ZM92.7618 47.98C86.2058 47.98 81.3438 46.088 78.1758 42.304C75.0518 38.52 73.4898 33.768 73.4898 28.048C73.4898 25.276 73.8198 22.68 74.4798 20.26C75.1398 17.84 75.7558 16.124 76.3278 15.112C76.8998 14.1 77.3618 13.506 77.7138 13.33C78.0658 13.11 79.4518 13 81.8718 13H83.1258C83.1258 10.8 83.5438 8.886 84.3798 7.258C85.2598 5.63 86.3818 4.42 87.7458 3.628C90.2978 2.176 92.7178 1.45 95.0058 1.45C107.238 1.45 113.354 9.15 113.354 24.55C113.354 29.346 112.54 33.614 110.912 37.354C109.988 39.466 108.778 41.292 107.282 42.832C105.786 44.328 103.784 45.56 101.276 46.528C98.8118 47.496 95.9738 47.98 92.7618 47.98ZM104.84 24.022C104.84 13.682 101.76 8.512 95.5998 8.512C93.8398 8.512 92.4758 9.018 91.5078 10.03C90.5838 11.042 90.1218 12.34 90.1218 13.924C90.1218 15.464 90.6058 17.29 91.5738 19.402C92.5858 21.514 93.5978 23.186 94.6098 24.418L96.0618 26.266C96.0618 26.794 95.2478 27.3 93.6198 27.784C91.9918 28.224 90.6938 28.444 89.7258 28.444C89.5058 28.444 89.0438 28.026 88.3398 27.19C87.6798 26.354 86.8878 25.078 85.9638 23.362C85.0838 21.602 84.4458 19.754 84.0498 17.818C83.3898 18.478 82.8618 19.82 82.4658 21.844C82.0698 23.868 81.8718 25.826 81.8718 27.718C81.8718 31.414 82.9058 34.582 84.9738 37.222C87.0418 39.818 89.6598 41.116 92.8278 41.116C100.836 41.116 104.84 35.418 104.84 24.022Z" fill="#0097B8"/>
<path d="M24.41 31.216L25.3893 31.0134L25.236 30.2724L24.4812 30.2185L24.41 31.216ZM13.19 31.414L12.8738 30.4653L12.3839 30.6286L12.2334 31.1226L13.19 31.414ZM9.23 47.98L8.23411 47.8895L8.23 47.9346V47.98H9.23ZM4.28 47.848L4.13606 48.8376L4.15069 48.8397L4.16538 48.8414L4.28 47.848ZM5.336 31.546L6.27451 31.8913L6.51608 31.2346L5.98194 30.7826L5.336 31.546ZM3.356 28.576L2.45643 29.0129L2.46157 29.0232L3.356 28.576ZM7.712 24.484L7.74812 25.4833L8.43392 25.4586L8.65746 24.8097L7.712 24.484ZM13.85 7.918L13.25 7.118L13.1596 7.1858L13.0866 7.27206L13.85 7.918ZM16.226 7.324L16.4103 8.30687L16.425 8.30411L16.4397 8.3009L16.226 7.324ZM18.932 6.862V7.862H20.0976L19.9204 6.70994L18.932 6.862ZM18.8 6.004L17.81 6.14543L17.8116 6.15606L18.8 6.004ZM18.47 4.024L17.4769 4.14084L17.4808 4.17474L17.4871 4.20829L18.47 4.024ZM19.46 1.78L19.0201 0.881936L19.006 0.888853L18.9921 0.896211L19.46 1.78ZM26.126 0.196L27.1119 0.0288909L26.9708 -0.804H26.126V0.196ZM27.842 10.162L26.8567 10.3334L26.859 10.3456L27.842 10.162ZM32.132 28.576L33.1009 28.3286L33.1009 28.3286L32.132 28.576ZM38.204 45.868L39.0678 45.3641L39.0635 45.3569L38.204 45.868ZM38.666 46.66H39.666V46.3897L39.5298 46.1561L38.666 46.66ZM34.112 49.3L33.7776 48.3576L33.7776 48.3576L34.112 49.3ZM27.446 42.568L26.4877 42.8538L26.4908 42.8639L27.446 42.568ZM22.826 24.418L21.9316 24.8652L23.7992 24.1882L22.826 24.418ZM20.384 13.792L19.3992 13.9658L19.3992 13.9658L20.384 13.792ZM19.724 12.934L18.924 12.334L18.8769 12.3968L18.8402 12.4661L19.724 12.934ZM17.48 18.346L16.5466 17.987L16.5419 17.9996L17.48 18.346ZM15.434 24.286L14.471 24.0164L14.1155 25.286H15.434V24.286ZM24.4812 30.2185C23.8203 30.1713 21.8829 30.15 18.734 30.15V32.15C21.9211 32.15 23.7677 32.1727 24.3388 32.2135L24.4812 30.2185ZM18.734 30.15C17.1436 30.15 15.8715 30.172 14.9244 30.2171C14.4514 30.2397 14.049 30.2684 13.7231 30.3046C13.4169 30.3386 13.1127 30.3857 12.8738 30.4653L13.5062 32.3627C13.505 32.3631 13.5139 32.3601 13.5361 32.3548C13.5577 32.3497 13.5874 32.3434 13.6265 32.3364C13.7055 32.3222 13.8101 32.3073 13.9439 32.2924C14.212 32.2626 14.5686 32.2363 15.0196 32.2149C15.9205 32.172 17.1564 32.15 18.734 32.15V30.15ZM12.2334 31.1226C9.90092 38.7802 8.55232 44.3892 8.23411 47.8895L10.2259 48.0705C10.5237 44.7948 11.8151 39.3598 14.1466 31.7054L12.2334 31.1226ZM8.23 47.98C8.23 47.7016 8.34363 47.4882 8.44998 47.3563C8.54845 47.2342 8.65292 47.1642 8.70906 47.1305C8.81874 47.0647 8.91298 47.0386 8.93459 47.0325C8.99333 47.0161 9.02912 47.0134 9.00773 47.016C8.97981 47.0193 8.90897 47.025 8.77753 47.0303C8.52324 47.0405 8.12703 47.046 7.58 47.046V49.046C8.13297 49.046 8.56176 49.0405 8.85747 49.0287C9.00103 49.023 9.13645 49.0149 9.24602 49.0018C9.29338 48.9961 9.38074 48.9845 9.47385 48.9584C9.51264 48.9476 9.61977 48.9165 9.73805 48.8455C9.79879 48.809 10.23 48.5473 10.23 47.98H8.23ZM7.58 47.046C6.56556 47.046 5.50395 46.9826 4.39462 46.8546L4.16538 48.8414C5.34405 48.9774 6.48244 49.046 7.58 49.046V47.046ZM4.42394 46.8584C3.22243 46.6836 2.35689 46.5246 1.80418 46.3839C1.52033 46.3117 1.36755 46.2561 1.30425 46.2262C1.26887 46.2095 1.31242 46.2242 1.37939 46.2851C1.43682 46.3373 1.65 46.5519 1.65 46.924H-0.35C-0.35 47.3621 -0.0990039 47.644 0.034046 47.765C0.176642 47.8946 0.333631 47.9795 0.449495 48.0343C0.688705 48.1474 0.989669 48.2403 1.31082 48.3221C1.96811 48.4894 2.91757 48.6604 4.13606 48.8376L4.42394 46.8584ZM1.65 46.924C1.65 46.6003 1.72634 46.0395 1.9181 45.1941C2.10601 44.3657 2.39143 43.3198 2.77807 42.051C3.5511 39.5142 4.71526 36.1298 6.27451 31.8913L4.39749 31.2007C2.83274 35.4542 1.6539 38.8788 0.864926 41.468C0.470568 42.7622 0.170244 43.8585 -0.0323496 44.7517C-0.231089 45.6278 -0.35 46.3677 -0.35 46.924H1.65ZM5.98194 30.7826C5.57896 30.4416 4.99439 29.6167 4.25043 28.1288L2.46157 29.0232C3.21361 30.5273 3.94904 31.6824 4.69006 32.3094L5.98194 30.7826ZM4.25551 28.1391C3.53384 26.6533 3.234 25.5383 3.234 24.748H1.234C1.234 25.9817 1.68216 27.4187 2.45649 29.0129L4.25551 28.1391ZM3.234 24.748C3.234 25.2059 2.94127 25.4622 2.85773 25.5286C2.75105 25.6134 2.65262 25.6551 2.61841 25.6691C2.53949 25.7014 2.47637 25.7146 2.46734 25.7165C2.4344 25.7237 2.41811 25.7248 2.43921 25.7223C2.47173 25.7183 2.53796 25.7121 2.64848 25.7041C2.86432 25.6885 3.19693 25.6698 3.65164 25.6478C4.55841 25.6041 5.92301 25.5493 7.74812 25.4833L7.67588 23.4847C5.84899 23.5507 4.47459 23.6059 3.55536 23.6502C3.09707 23.6722 2.74493 23.692 2.50427 23.7094C2.38654 23.7179 2.28158 23.7268 2.19998 23.7366C2.16401 23.7409 2.10493 23.7486 2.04346 23.7619C2.02016 23.767 1.94634 23.7831 1.86029 23.8184C1.82251 23.8338 1.72141 23.8769 1.61295 23.9632C1.52762 24.031 1.234 24.2887 1.234 24.748H3.234ZM8.65746 24.8097C10.4607 19.5759 11.8713 15.586 12.8902 12.8359C13.4001 11.4597 13.8088 10.4026 14.1177 9.65856C14.2725 9.28562 14.3981 9.00157 14.4956 8.79966C14.6099 8.56334 14.646 8.52545 14.6134 8.56394L13.0866 7.27206C12.933 7.45354 12.7993 7.71335 12.6949 7.9294C12.5739 8.17986 12.432 8.50288 12.2706 8.89169C11.947 9.67112 11.5279 10.7563 11.0148 12.1411C9.98775 14.913 8.57128 18.9201 6.76654 24.1583L8.65746 24.8097ZM14.45 8.718C14.3552 8.78908 14.302 8.79341 14.4202 8.75313C14.5041 8.72453 14.6337 8.68685 14.8185 8.64064C15.1861 8.54874 15.7136 8.43749 16.4103 8.30687L16.0417 6.34113C15.3304 6.47451 14.7579 6.59425 14.3335 6.70036C14.1223 6.75315 13.9329 6.80621 13.7748 6.86011C13.651 6.90233 13.4328 6.98092 13.25 7.118L14.45 8.718ZM16.4397 8.3009C17.8808 7.98566 18.6668 7.862 18.932 7.862V5.862C18.4052 5.862 17.3872 6.04633 16.0123 6.3471L16.4397 8.3009ZM19.9204 6.70994L19.7884 5.85194L17.8116 6.15606L17.9436 7.01405L19.9204 6.70994ZM19.79 5.86258C19.6996 5.2303 19.5872 4.55588 19.4529 3.83971L17.4871 4.20829C17.6168 4.90012 17.7244 5.5457 17.8101 6.14542L19.79 5.86258ZM19.4632 3.90716C19.3733 3.14369 19.338 2.72182 19.338 2.572H17.338C17.338 2.86218 17.3907 3.4083 17.4769 4.14084L19.4632 3.90716ZM19.338 2.572C19.338 2.78756 19.2641 2.9413 19.2256 3.00933C19.1845 3.08184 19.1453 3.12416 19.1351 3.13487C19.1158 3.1553 19.1247 3.14173 19.1952 3.09197C19.3297 2.99703 19.5657 2.85554 19.9279 2.66379L18.9921 0.896211C18.6063 1.10046 18.2813 1.28897 18.0418 1.45803C17.9253 1.54026 17.7939 1.6422 17.6811 1.76162C17.617 1.82952 17.338 2.12139 17.338 2.572H19.338ZM19.8999 2.67806C21.9259 1.68574 23.998 1.196 26.126 1.196V-0.804C23.678 -0.804 21.3061 -0.237738 19.0201 0.881936L19.8999 2.67806ZM25.1401 0.363108C25.5804 2.96107 26.1527 6.28461 26.8568 10.3333L28.8272 9.99066C28.1233 5.94338 27.5516 2.62293 27.1119 0.0288909L25.1401 0.363108ZM26.859 10.3456C27.6133 14.3835 29.0502 20.5479 31.1631 28.8234L33.1009 28.3286C30.9898 20.0601 29.5667 13.9485 28.825 9.97836L26.859 10.3456ZM31.1631 28.8234C33.2767 37.1017 35.3287 42.989 37.3445 46.3791L39.0635 45.3569C37.2073 42.235 35.2113 36.5943 33.1009 28.3286L31.1631 28.8234ZM37.3402 46.3719L37.8022 47.1639L39.5298 46.1561L39.0678 45.3641L37.3402 46.3719ZM37.666 46.66C37.666 46.5297 37.6966 46.4311 37.7193 46.3749C37.742 46.3188 37.7644 46.2861 37.7698 46.2784C37.7782 46.2665 37.7607 46.2932 37.6857 46.3603C37.5379 46.4925 37.2787 46.6834 36.878 46.9365L37.946 48.6275C38.3813 48.3526 38.7491 48.0925 39.0193 47.8507C39.1533 47.7308 39.2926 47.5897 39.4054 47.4294C39.5062 47.2861 39.666 47.0161 39.666 46.66H37.666ZM36.878 46.9365C36.1263 47.4113 35.1007 47.8881 33.7776 48.3576L34.4464 50.2424C35.8513 49.7439 37.0257 49.2087 37.946 48.6275L36.878 46.9365ZM33.7776 48.3576C32.4938 48.8131 31.3544 49.026 30.35 49.026V51.026C31.6336 51.026 33.0022 50.7549 34.4464 50.2424L33.7776 48.3576ZM30.35 49.026C30.5885 49.026 30.7535 49.1181 30.8226 49.1641C30.8944 49.2118 30.9296 49.2536 30.9302 49.2543C30.9308 49.2551 30.8943 49.2098 30.8225 49.0789C30.6838 48.8261 30.4962 48.4083 30.2589 47.7987C29.7881 46.5896 29.1695 44.7525 28.4012 42.2721L26.4908 42.8639C27.2625 45.3555 27.8979 47.2474 28.3952 48.5243C28.6418 49.1577 28.8667 49.6722 29.069 50.0409C29.1677 50.2207 29.2838 50.4085 29.4192 50.5647C29.4872 50.643 29.5853 50.7431 29.7155 50.8297C29.8431 50.9145 30.062 51.026 30.35 51.026V49.026ZM28.4043 42.2822C26.9101 37.2721 25.9082 33.5217 25.3893 31.0134L23.4307 31.4186C23.9678 34.0143 24.9899 37.8319 26.4877 42.8538L28.4043 42.2822ZM23.7992 24.1882C22.2979 17.8298 21.4943 14.3295 21.3688 13.6182L19.3992 13.9658C19.5377 14.7505 20.3621 18.3342 21.8528 24.6478L23.7992 24.1882ZM21.3688 13.6182C21.3012 13.235 21.233 12.9102 21.1619 12.6683C21.1284 12.5546 21.08 12.4083 21.0079 12.2722C20.9733 12.2069 20.9066 12.0919 20.7951 11.9804C20.689 11.8743 20.4379 11.67 20.054 11.67V13.67C19.6921 13.67 19.4637 13.4774 19.3809 13.3946C19.2929 13.3066 19.2502 13.2266 19.2403 13.208C19.2178 13.1654 19.2216 13.1594 19.2431 13.2327C19.282 13.3648 19.3348 13.601 19.3992 13.9658L21.3688 13.6182ZM20.054 11.67C19.682 11.67 19.4137 11.8488 19.2808 11.9551C19.134 12.0726 19.0157 12.2118 18.924 12.334L20.524 13.534C20.5643 13.4802 20.567 13.4874 20.5302 13.5169C20.5097 13.5333 20.4628 13.5679 20.39 13.6003C20.3157 13.6333 20.2003 13.67 20.054 13.67V11.67ZM18.8402 12.4661C18.4103 13.2781 17.6401 15.1441 16.5467 17.987L18.4133 18.705C19.5199 15.8279 20.2457 14.0859 20.6078 13.4019L18.8402 12.4661ZM16.5419 17.9996C15.487 20.8567 14.7914 22.8722 14.471 24.0164L16.397 24.5556C16.6926 23.4998 17.361 21.5553 18.4181 18.6924L16.5419 17.9996ZM15.434 25.286C17.8746 25.286 19.7044 25.297 20.9271 25.3188C21.5403 25.3298 21.991 25.3433 22.2867 25.3589C22.4376 25.3668 22.5303 25.3744 22.5782 25.3801C22.6065 25.3834 22.5925 25.3831 22.5578 25.3748C22.5437 25.3715 22.487 25.3579 22.4146 25.3263C22.3781 25.3104 22.3112 25.2786 22.2357 25.2238C22.1672 25.1742 22.0299 25.0619 21.9316 24.8652L23.7204 23.9708C23.6207 23.7713 23.4809 23.6563 23.4087 23.604C23.3294 23.5465 23.2575 23.512 23.2149 23.4934C23.1304 23.4565 23.0567 23.4377 23.021 23.4292C22.943 23.4106 22.8668 23.4003 22.8139 23.394C22.6995 23.3805 22.5544 23.3702 22.3918 23.3616C22.0605 23.3442 21.5817 23.3302 20.9629 23.3192C19.7216 23.297 17.8774 23.286 15.434 23.286V25.286ZM55.7471 30.622L56.6219 30.1375L55.7982 28.65L54.8985 30.0929L55.7471 30.622ZM45.1211 47.518L44.3318 46.9041L44.3163 46.9239L44.3019 46.9445L45.1211 47.518ZM39.5111 47.452L39.1949 48.4007L39.1949 48.4007L39.5111 47.452ZM36.4751 46.066L37.0848 45.2734L37.0848 45.2734L36.4751 46.066ZM36.1451 44.482L36.8036 45.2346L36.8311 45.2105L36.8568 45.1845L36.1451 44.482ZM51.5891 23.164L52.4305 23.7044L52.7539 23.2009L52.4631 22.678L51.5891 23.164ZM42.6131 8.38L41.9546 9.13259L41.9595 9.13682L42.6131 8.38ZM38.3891 6.862L37.4947 7.30921L37.7711 7.862H38.3891V6.862ZM38.7191 4.222L37.7753 3.89165L37.7702 3.90618L37.7655 3.92087L38.7191 4.222ZM39.3791 2.704L40.0862 3.41111L40.0862 3.4111L39.3791 2.704ZM40.6331 2.308L40.4502 1.32486L40.4488 1.32512L40.6331 2.308ZM49.4771 1.912L48.77 2.61911L48.84 2.68912L48.9224 2.74404L49.4771 1.912ZM50.4671 3.628L49.5726 4.07524L49.5776 4.08498L50.4671 3.628ZM56.5391 15.376L55.6525 15.8386L56.4542 17.3751L57.3833 15.9121L56.5391 15.376ZM70.0691 2.242L70.4405 1.31352L70.4405 1.31352L70.0691 2.242ZM73.1711 3.958L72.5354 4.72993L72.5493 4.7414L72.5637 4.75236L73.1711 3.958ZM74.2931 5.212L74.9376 5.97663L75.2931 5.67697V5.212H74.2931ZM60.6311 22.9L59.7948 22.3518L59.4616 22.86L59.7593 23.3898L60.6311 22.9ZM76.2731 45.34H77.2731V44.8322L76.8631 44.5326L76.2731 45.34ZM73.1051 47.848L72.6432 46.9611L72.632 46.9669L72.621 46.973L73.1051 47.848ZM67.3631 49.564L66.6658 50.2807L66.9569 50.564H67.3631V49.564ZM54.8985 30.0929C51.5107 35.5266 48.932 39.6503 47.1621 42.4646C46.277 43.872 45.5951 44.9504 45.1157 45.701C44.8759 46.0765 44.6881 46.3678 44.5516 46.5762C44.4832 46.6806 44.4293 46.7618 44.3891 46.8212C44.3439 46.8879 44.3286 46.9081 44.3318 46.9041L45.9105 48.1319C46.0243 47.9856 46.3379 47.5029 46.8013 46.7775C47.2844 46.0211 47.9692 44.938 48.8551 43.5294C50.6272 40.7117 53.2075 36.5854 56.5957 31.1511L54.8985 30.0929ZM44.3019 46.9445C44.2403 47.0324 44.1872 47.1005 44.1427 47.1518C44.0976 47.2039 44.0671 47.2322 44.0519 47.2448C44.0358 47.2583 44.0478 47.2449 44.0886 47.2264C44.1314 47.2069 44.2148 47.178 44.3291 47.178V49.178C44.773 49.178 45.1163 48.9612 45.3323 48.7812C45.5593 48.5921 45.7606 48.3482 45.9403 48.0915L44.3019 46.9445ZM44.3291 47.178C42.6608 47.178 41.1634 46.9487 39.8273 46.5033L39.1949 48.4007C40.7628 48.9233 42.4774 49.178 44.3291 49.178V47.178ZM39.8273 46.5033C38.3898 46.0241 37.5152 45.6045 37.0848 45.2734L35.8654 46.8586C36.579 47.4075 37.7284 47.9119 39.1949 48.4007L39.8273 46.5033ZM37.0848 45.2734C36.811 45.0627 36.6363 44.912 36.5387 44.8144C36.4884 44.7641 36.4826 44.7515 36.496 44.7712C36.5034 44.782 36.5279 44.8188 36.5527 44.878C36.576 44.9335 36.6171 45.0499 36.6171 45.208H34.6171C34.6171 45.5565 34.7842 45.8111 34.8454 45.9006C34.9304 46.0247 35.0318 46.1359 35.1245 46.2286C35.3129 46.417 35.5672 46.6293 35.8654 46.8586L37.0848 45.2734ZM36.6171 45.208C36.6171 45.3297 36.5872 45.415 36.5717 45.4517C36.5562 45.4886 36.5456 45.4995 36.5578 45.4827C36.5691 45.4672 36.5929 45.4375 36.6355 45.3932C36.6775 45.3494 36.7328 45.2966 36.8036 45.2346L35.4866 43.7294C35.2821 43.9083 35.0895 44.1013 34.9404 44.3063C34.8063 44.4906 34.6171 44.8061 34.6171 45.208H36.6171ZM36.8568 45.1845C40.2843 41.7119 45.4837 34.5203 52.4305 23.7044L50.7477 22.6236C43.7905 33.4557 38.6939 40.4761 35.4334 43.7795L36.8568 45.1845ZM52.4631 22.678C49.9529 18.1641 47.9437 14.6642 46.4379 12.184C45.6855 10.9448 45.053 9.95061 44.5428 9.20799C44.0554 8.49852 43.6202 7.92847 43.2667 7.62317L41.9595 9.13682C42.09 9.24953 42.3918 9.60898 42.8944 10.3405C43.3742 11.0389 43.9847 11.9972 44.7283 13.222C46.2145 15.6698 48.2093 19.1439 50.7152 23.65L52.4631 22.678ZM43.2716 7.62742C42.7856 7.2022 42.0365 6.82153 41.1365 6.46152L40.3937 8.31847C41.2537 8.66246 41.7366 8.9418 41.9546 9.13257L43.2716 7.62742ZM41.1365 6.46152C40.1768 6.07766 39.2561 5.862 38.3891 5.862V7.862C38.9302 7.862 39.5934 7.99834 40.3937 8.31847L41.1365 6.46152ZM39.2835 6.41478C39.31 6.46768 39.324 6.50975 39.3303 6.53061C39.3372 6.55314 39.3402 6.56774 39.3408 6.57101C39.3419 6.57621 39.3391 6.5631 39.3355 6.52396C39.3284 6.44577 39.3231 6.32 39.3231 6.136H37.3231C37.3231 6.34799 37.3288 6.54122 37.3437 6.70503C37.3541 6.81978 37.3788 7.07744 37.4947 7.30921L39.2835 6.41478ZM39.3231 6.136C39.3231 5.85562 39.4153 5.33828 39.6727 4.52313L37.7655 3.92087C37.4949 4.77772 37.3231 5.53638 37.3231 6.136H39.3231ZM39.663 4.55235C39.8136 4.12207 39.9363 3.80172 40.0322 3.58122C40.0803 3.47049 40.1159 3.3984 40.1392 3.3562C40.1723 3.29625 40.156 3.34129 40.0862 3.41111L38.672 1.99689C38.5362 2.1327 38.443 2.2905 38.388 2.39004C38.3233 2.50735 38.2599 2.64151 38.198 2.78377C38.0739 3.06928 37.9327 3.44192 37.7753 3.89165L39.663 4.55235ZM40.0862 3.4111C40.0049 3.49245 39.9415 3.51757 39.9645 3.50652C39.9767 3.50066 40.0156 3.48394 40.0927 3.45958C40.2471 3.41082 40.4835 3.35347 40.8174 3.29087L40.4488 1.32512C40.0787 1.39453 39.7541 1.46917 39.4905 1.55242C39.2823 1.61816 38.9276 1.74134 38.672 1.99689L40.0862 3.4111ZM40.816 3.29113C42.6473 2.95042 44.5001 2.78 46.3751 2.78V0.779999C44.3781 0.779999 42.4029 0.961578 40.4502 1.32487L40.816 3.29113ZM46.3751 2.78C47.3612 2.78 48.0977 2.79102 48.5931 2.81209C48.8435 2.82275 49.0137 2.83526 49.1169 2.8474C49.171 2.85377 49.1828 2.85735 49.1689 2.85404C49.1625 2.85253 49.1275 2.84422 49.0781 2.82449C49.0486 2.81266 48.908 2.75713 48.77 2.61911L50.1842 1.20489C50.0352 1.05587 49.8763 0.989679 49.8209 0.967535C49.7458 0.937491 49.6776 0.919218 49.6306 0.908077C49.5356 0.88552 49.4367 0.87123 49.3506 0.861097C49.1732 0.840235 48.9447 0.825246 48.6781 0.813903C48.1395 0.790981 47.369 0.779999 46.3751 0.779999V2.78ZM48.9224 2.74404C48.8699 2.70907 48.8342 2.67698 48.8164 2.66012C48.7972 2.6419 48.7852 2.62837 48.7809 2.62337C48.773 2.61437 48.777 2.61789 48.794 2.64221C48.8279 2.69064 48.8816 2.77524 48.9574 2.90672C49.1077 3.16714 49.3118 3.55352 49.5727 4.07521L51.3615 3.18079C51.0944 2.64648 50.8696 2.21886 50.6898 1.90728C50.6007 1.75276 50.5141 1.61185 50.4325 1.49529C50.3806 1.42124 50.2404 1.21901 50.0318 1.07995L48.9224 2.74404ZM49.5776 4.08498C52.0421 8.88192 54.0672 12.8 55.6525 15.8386L57.4257 14.9134C55.8431 11.88 53.8201 7.96608 51.3566 3.17102L49.5776 4.08498ZM57.3833 15.9121C60.3293 11.2732 62.6026 7.80617 64.2071 5.50313C65.0113 4.34888 65.6357 3.50399 66.0863 2.95441C66.3141 2.6766 66.4782 2.49796 66.5859 2.39703C66.641 2.3453 66.658 2.33625 66.6425 2.34616C66.6337 2.35179 66.6002 2.37279 66.5454 2.39433C66.4939 2.41457 66.3867 2.45 66.2411 2.45V0.449999C65.909 0.449999 65.6603 0.600104 65.5628 0.662638C65.4343 0.745074 65.3173 0.844827 65.2178 0.938157C65.016 1.12735 64.7877 1.3839 64.5397 1.68634C64.0388 2.29726 63.379 3.19312 62.5661 4.35987C60.9366 6.69883 58.6449 10.1948 55.695 14.8399L57.3833 15.9121ZM66.2411 2.45C67.3279 2.45 68.4779 2.68253 69.6977 3.17047L70.4405 1.31352C69.0204 0.745463 67.6184 0.449999 66.2411 0.449999V2.45ZM69.6977 3.17047C70.9624 3.67636 71.8947 4.20226 72.5354 4.72993L73.8068 3.18607C72.9516 2.48174 71.8158 1.86364 70.4405 1.31352L69.6977 3.17047ZM72.5637 4.75236C72.9165 5.02215 73.1408 5.22587 73.2674 5.36729C73.3303 5.43766 73.3482 5.46972 73.3462 5.46596C73.3442 5.46236 73.3323 5.44021 73.3202 5.40109C73.308 5.36168 73.2931 5.29673 73.2931 5.212H75.2931C75.2931 4.91697 75.1919 4.67219 75.0998 4.50429C75.0042 4.33003 74.8819 4.17234 74.7579 4.0337C74.5104 3.75713 74.1738 3.46585 73.7786 3.16364L72.5637 4.75236ZM73.6486 4.44737C70.441 7.15095 65.8144 13.1686 59.7948 22.3518L61.4674 23.4482C67.5038 14.2394 71.9852 8.46505 74.9376 5.97663L73.6486 4.44737ZM59.7593 23.3898C63.2653 29.6302 66.3355 34.6439 68.9682 38.4208C71.583 42.172 73.8236 44.7885 75.6831 46.1474L76.8631 44.5326C75.2906 43.3835 73.2082 41.006 70.609 37.2772C68.0277 33.5741 64.9929 28.6218 61.5029 22.4102L59.7593 23.3898ZM75.2731 45.34C75.2731 45.178 75.3431 45.1279 75.2751 45.2185C75.2143 45.2996 75.0886 45.4313 74.8604 45.612C74.4058 45.9719 73.6788 46.4217 72.6432 46.9611L73.567 48.7349C74.6435 48.1743 75.5004 47.6561 76.1018 47.18C76.4016 46.9427 76.6719 46.6894 76.8751 46.4185C77.0712 46.1571 77.2731 45.788 77.2731 45.34H75.2731ZM72.621 46.973C70.6338 48.0723 68.9786 48.564 67.6271 48.564V50.564C69.4436 50.564 71.4404 49.9117 73.5892 48.723L72.621 46.973ZM67.6271 48.564H67.3631V50.564H67.6271V48.564ZM68.0605 48.8473C67.3529 48.1589 66.042 46.2999 64.0906 43.1177C62.1658 39.979 59.677 35.6542 56.6219 30.1375L54.8723 31.1065C57.9332 36.6338 60.4384 40.988 62.3856 44.1633C64.3062 47.2951 65.7453 49.3851 66.6658 50.2807L68.0605 48.8473ZM78.1758 42.304L77.4046 42.9407L77.409 42.9459L78.1758 42.304ZM76.3278 15.112L77.1983 15.6041L77.1983 15.6041L76.3278 15.112ZM77.7138 13.33L78.161 14.2244L78.2035 14.2032L78.2438 14.178L77.7138 13.33ZM83.1258 13V14H84.1258V13H83.1258ZM84.3798 7.258L83.5001 6.78248L83.495 6.79179L83.4902 6.80119L84.3798 7.258ZM87.7458 3.628L87.2512 2.7588L87.2436 2.76321L87.7458 3.628ZM110.912 37.354L111.828 37.7548L111.829 37.7531L110.912 37.354ZM107.282 42.832L107.989 43.5391L107.994 43.534L107.999 43.5288L107.282 42.832ZM101.276 46.528L100.916 45.5951L100.91 45.5972L101.276 46.528ZM91.5078 10.03L90.7851 9.33878L90.7771 9.34716L90.7693 9.35573L91.5078 10.03ZM91.5738 19.402L90.6647 19.8187L90.6683 19.8264L90.672 19.8341L91.5738 19.402ZM94.6098 24.418L95.3961 23.8002L95.3894 23.7916L95.3825 23.7833L94.6098 24.418ZM96.0618 26.266H97.0618V25.9201L96.8481 25.6482L96.0618 26.266ZM93.6198 27.784L93.8807 28.7494L93.8927 28.7461L93.9047 28.7425L93.6198 27.784ZM88.3398 27.19L87.5549 27.8096L87.5647 27.822L87.5749 27.8341L88.3398 27.19ZM85.9638 23.362L85.0693 23.8092L85.0761 23.8228L85.0833 23.8361L85.9638 23.362ZM84.0498 17.818L85.0295 17.6176L84.657 15.7966L83.3427 17.1109L84.0498 17.818ZM84.9738 37.222L84.1865 37.8387L84.1916 37.8451L84.9738 37.222ZM92.7618 46.98C86.3982 46.98 81.8628 45.1502 78.9425 41.6621L77.409 42.9459C80.8247 47.0258 86.0133 48.98 92.7618 48.98V46.98ZM78.9469 41.6674C75.9947 38.0914 74.4898 33.5761 74.4898 28.048H72.4898C72.4898 33.9599 74.1088 38.9486 77.4046 42.9406L78.9469 41.6674ZM74.4898 28.048C74.4898 25.3557 74.8102 22.8489 75.4445 20.5231L73.515 19.9969C72.8293 22.5111 72.4898 25.1963 72.4898 28.048H74.4898ZM75.4445 20.5231C76.1018 18.113 76.6918 16.5003 77.1983 15.6041L75.4572 14.6199C74.8198 15.7477 74.1777 17.567 73.515 19.9969L75.4445 20.5231ZM77.1983 15.6041C77.4717 15.1204 77.7032 14.765 77.8926 14.5214C78.1007 14.2539 78.1916 14.2091 78.161 14.2244L77.2666 12.4356C76.8839 12.6269 76.5678 12.9671 76.3139 13.2936C76.0414 13.644 75.7558 14.0916 75.4572 14.6199L77.1983 15.6041ZM78.2438 14.178C78.1628 14.2286 78.1564 14.2064 78.3582 14.1681C78.5258 14.1362 78.7681 14.1054 79.0964 14.0794C79.7507 14.0274 80.672 14 81.8718 14V12C80.6516 12 79.6698 12.0276 78.9382 12.0856C78.5735 12.1146 78.2519 12.1525 77.9851 12.2032C77.7524 12.2474 77.4407 12.3214 77.1838 12.482L78.2438 14.178ZM81.8718 14H83.1258V12H81.8718V14ZM84.1258 13C84.1258 10.9271 84.5192 9.17564 85.2693 7.7148L83.4902 6.80119C82.5684 8.59636 82.1258 10.6729 82.1258 13H84.1258ZM85.2595 7.73352C86.0673 6.23912 87.069 5.17729 88.2479 4.49279L87.2436 2.76321C85.6945 3.66271 84.4523 5.02088 83.5001 6.78248L85.2595 7.73352ZM88.2403 4.49716C90.6833 3.10715 92.9336 2.45 95.0058 2.45V0.449999C92.5019 0.449999 89.9122 1.24485 87.2512 2.75883L88.2403 4.49716ZM95.0058 2.45C100.899 2.45 105.161 4.29326 107.984 7.84696C110.841 11.4446 112.354 16.9556 112.354 24.55H114.354C114.354 16.7444 112.808 10.7054 109.55 6.60304C106.256 2.45674 101.345 0.449999 95.0058 0.449999V2.45ZM112.354 24.55C112.354 29.2325 111.559 33.361 109.995 36.9549L111.829 37.7531C113.52 33.867 114.354 29.4595 114.354 24.55H112.354ZM109.996 36.9532C109.116 38.9635 107.971 40.6873 106.564 42.1352L107.999 43.5288C109.585 41.8967 110.859 39.9685 111.828 37.7548L109.996 36.9532ZM106.575 42.1249C105.2 43.4994 103.327 44.6642 100.916 45.5951L101.636 47.4609C104.24 46.4558 106.371 45.1566 107.989 43.5391L106.575 42.1249ZM100.91 45.5972C98.5845 46.5109 95.8746 46.98 92.7618 46.98V48.98C96.073 48.98 99.039 48.4811 101.641 47.4588L100.91 45.5972ZM105.84 24.022C105.84 18.7854 105.066 14.6923 103.389 11.8777C101.663 8.98128 99.0219 7.512 95.5998 7.512V9.512C98.3376 9.512 100.316 10.6277 101.671 12.9013C103.074 15.2567 103.84 18.9186 103.84 24.022H105.84ZM95.5998 7.512C93.6413 7.512 91.9877 8.08156 90.7851 9.33878L92.2304 10.7212C92.9639 9.95443 94.0383 9.512 95.5998 9.512V7.512ZM90.7693 9.35573C89.651 10.5805 89.1218 12.132 89.1218 13.924H91.1218C91.1218 12.548 91.5165 11.5035 92.2463 10.7043L90.7693 9.35573ZM89.1218 13.924C89.1218 15.662 89.6645 17.6363 90.6647 19.8187L92.4828 18.9853C91.5471 16.9437 91.1218 15.266 91.1218 13.924H89.1218ZM90.672 19.8341C91.7041 21.9881 92.7563 23.7371 93.837 25.0527L95.3825 23.7833C94.4392 22.6349 93.4675 21.0399 92.4756 18.9699L90.672 19.8341ZM93.8234 25.0358L95.2754 26.8838L96.8481 25.6482L95.3961 23.8002L93.8234 25.0358ZM95.0618 26.266C95.0618 25.9768 95.2723 25.9753 94.9233 26.1922C94.6289 26.3753 94.1182 26.5925 93.3348 26.8255L93.9047 28.7425C94.7493 28.4915 95.4597 28.2137 95.9792 27.8908C96.4443 27.6017 97.0618 27.0832 97.0618 26.266H95.0618ZM93.3589 26.8186C91.763 27.25 90.5639 27.444 89.7258 27.444V29.444C90.8236 29.444 92.2205 29.198 93.8807 28.7494L93.3589 26.8186ZM89.7258 27.444C89.9519 27.444 90.0763 27.5365 90.038 27.513C90.0261 27.5058 89.9771 27.4721 89.8852 27.389C89.7036 27.2246 89.4458 26.9509 89.1047 26.5459L87.5749 27.8341C87.9378 28.2651 88.263 28.6184 88.5434 28.872C88.6824 28.9979 88.8342 29.121 88.9928 29.2182C89.125 29.2992 89.3896 29.444 89.7258 29.444V27.444ZM89.1246 26.5704C88.5188 25.803 87.7593 24.5873 86.8442 22.8879L85.0833 23.8361C86.0162 25.5687 86.8407 26.905 87.5549 27.8096L89.1246 26.5704ZM86.8582 22.9148C86.0175 21.2333 85.408 19.4683 85.0295 17.6176L83.0701 18.0184C83.4835 20.0397 84.1501 21.9707 85.0693 23.8092L86.8582 22.9148ZM83.3427 17.1109C82.8772 17.5763 82.5179 18.2171 82.2282 18.9534C81.9348 19.6991 81.6895 20.6036 81.4844 21.652L83.4472 22.036C83.638 21.0604 83.8547 20.2819 84.0893 19.6856C84.3276 19.0799 84.5623 18.7197 84.7569 18.5251L83.3427 17.1109ZM81.4844 21.652C81.0771 23.7336 80.8718 25.7561 80.8718 27.718H82.8718C82.8718 25.8959 83.0624 24.0024 83.4472 22.036L81.4844 21.652ZM80.8718 27.718C80.8718 31.6133 81.9665 35.0045 84.1865 37.8387L85.761 36.6053C83.8451 34.1595 82.8718 31.2147 82.8718 27.718H80.8718ZM84.1916 37.8451C86.4389 40.6661 89.3388 42.116 92.8278 42.116V40.116C89.9807 40.116 87.6447 38.9699 85.7559 36.5989L84.1916 37.8451ZM92.8278 42.116C97.1012 42.116 100.436 40.5759 102.655 37.4174C104.829 34.3235 105.84 29.8065 105.84 24.022H103.84C103.84 29.6335 102.848 33.6635 101.019 36.2676C99.234 38.8071 96.5624 40.116 92.8278 40.116V42.116Z" fill="#0097B8"/>
</svg>
