<svg width="57" height="42" viewBox="0 0 57 42" fill="none" xmlns="http://www.w3.org/2000/svg">
<path d="M48.2542 3.48402C44.5581 1.84434 40.6581 0.674073 36.6512 0.00239209C36.6149 -0.00351787 36.5776 0.00158636 36.5444 0.0170031C36.5113 0.0324199 36.4839 0.0573921 36.466 0.0884857C35.9637 0.949423 35.4079 2.07553 35.0196 2.95713C30.7005 2.32351 26.3072 2.32351 21.9881 2.95713C21.555 1.97504 21.0649 1.01731 20.5204 0.0884857C20.5021 0.0577326 20.4746 0.0330482 20.4416 0.0176809C20.4085 0.00231368 20.3714 -0.00301624 20.3351 0.00239209C16.3274 0.670479 12.4265 1.84135 8.7322 3.48402C8.70059 3.49568 8.67414 3.51759 8.65739 3.54601C1.26884 14.2182 -0.758203 24.6286 0.235724 34.9082C0.239287 34.9564 0.271349 35.0047 0.310536 35.0356C4.61301 38.1165 9.42542 40.4687 14.5426 41.992C14.5787 42.003 14.6175 42.0026 14.6534 41.9909C14.6893 41.9791 14.7203 41.9566 14.7421 41.9266C15.8393 40.4802 16.8154 38.9546 17.6562 37.3498C17.6737 37.3168 17.6797 37.2792 17.6733 37.2425C17.6668 37.2059 17.6484 37.1723 17.6205 37.1467C17.6021 37.1299 17.5803 37.117 17.5564 37.1088C16.0216 36.5386 14.5351 35.8535 13.1105 35.0598C13.0707 35.038 13.0411 35.0022 13.0278 34.9599C13.0146 34.9176 13.0186 34.8719 13.0392 34.8325C13.0513 34.8068 13.0697 34.7844 13.0927 34.767C13.3919 34.5501 13.6911 34.3228 13.9761 34.0955C14.0013 34.0759 14.0315 34.0634 14.0635 34.0591C14.0955 34.0549 14.1281 34.0591 14.1578 34.0714C23.4879 38.1901 33.5875 38.1901 42.8036 34.0714C42.8344 34.0585 42.8682 34.054 42.9014 34.0582C42.9347 34.0624 42.9661 34.0753 42.9924 34.0955C43.2774 34.3228 43.5766 34.5501 43.8759 34.767C43.9001 34.7842 43.9196 34.8068 43.9326 34.833C43.9455 34.8592 43.9516 34.8881 43.9502 34.9171C43.9488 34.9461 43.9399 34.9743 43.9245 34.9992C43.909 35.0241 43.8874 35.0449 43.8616 35.0598C42.4403 35.8607 40.9519 36.545 39.4121 37.1053C39.3876 37.1139 39.3653 37.1276 39.3468 37.1455C39.3283 37.1633 39.3141 37.1849 39.3053 37.2087C39.297 37.2317 39.2937 37.256 39.2955 37.2803C39.2974 37.3046 39.3043 37.3283 39.3159 37.3498C40.1709 38.9512 41.1506 40.4802 42.2265 41.9266C42.2482 41.9566 42.2793 41.9791 42.3151 41.9909C42.351 42.0026 42.3898 42.003 42.426 41.992C47.5517 40.4734 52.3719 38.1209 56.6794 35.0356C56.701 35.0212 56.7189 35.0023 56.7318 34.9802C56.7448 34.9581 56.7524 34.9335 56.7542 34.9082C57.9441 23.0238 54.7628 12.6995 48.3254 3.54945C48.3189 3.53434 48.3092 3.52071 48.297 3.50944C48.2847 3.49817 48.2701 3.48951 48.2542 3.48402ZM19.0491 28.6475C16.2383 28.6475 13.9263 26.1542 13.9263 23.0962C13.9263 20.0347 16.1956 17.5414 19.0491 17.5414C21.924 17.5414 24.2147 20.0553 24.1719 23.0962C24.1719 26.1542 21.9026 28.6475 19.0491 28.6475ZM37.9871 28.6475C35.1799 28.6475 32.8643 26.1542 32.8643 23.0962C32.8643 20.0347 35.1336 17.5414 37.9871 17.5414C40.862 17.5414 43.1563 20.0553 43.11 23.0962C43.11 26.1542 40.862 28.6475 37.9871 28.6475Z" fill="#02AED4"/>
</svg>
